<svg width="154" height="80" viewBox="0 0 154 80" fill="none" xmlns="http://www.w3.org/2000/svg">
<path d="M26.9 36.74C27.8467 36.9667 28.56 37.3733 29.04 37.96C29.5333 38.5333 29.78 39.2733 29.78 40.18C29.78 41.3933 29.3333 42.3333 28.44 43C27.56 43.6667 26.2733 44 24.58 44H18.18V30H24.2C25.7333 30 26.9267 30.3133 27.78 30.94C28.6467 31.5533 29.08 32.44 29.08 33.6C29.08 34.36 28.8867 35.0067 28.5 35.54C28.1267 36.0733 27.5933 36.4733 26.9 36.74ZM20.16 36.16H24.06C25.0333 36.16 25.7733 35.9667 26.28 35.58C26.8 35.1933 27.06 34.6267 27.06 33.88C27.06 33.1333 26.8 32.5667 26.28 32.18C25.76 31.78 25.02 31.58 24.06 31.58H20.16V36.16ZM24.54 42.42C26.6867 42.42 27.76 41.62 27.76 40.02C27.76 39.22 27.4867 38.6333 26.94 38.26C26.4067 37.8733 25.6067 37.68 24.54 37.68H20.16V42.42H24.54ZM37.4214 44.12C36.3414 44.12 35.3747 43.8867 34.5214 43.42C33.6814 42.9533 33.0214 42.3133 32.5414 41.5C32.0614 40.6733 31.8214 39.74 31.8214 38.7C31.8214 37.66 32.0614 36.7333 32.5414 35.92C33.0214 35.0933 33.6814 34.4533 34.5214 34C35.3747 33.5333 36.3414 33.3 37.4214 33.3C38.3814 33.3 39.2347 33.4933 39.9814 33.88C40.7414 34.2667 41.3281 34.8267 41.7414 35.56L40.2814 36.5C39.9481 35.9933 39.5347 35.6133 39.0414 35.36C38.5481 35.1067 38.0014 34.98 37.4014 34.98C36.7081 34.98 36.0814 35.1333 35.5214 35.44C34.9747 35.7467 34.5414 36.1867 34.2214 36.76C33.9147 37.32 33.7614 37.9667 33.7614 38.7C33.7614 39.4467 33.9147 40.1067 34.2214 40.68C34.5414 41.24 34.9747 41.6733 35.5214 41.98C36.0814 42.2867 36.7081 42.44 37.4014 42.44C38.0014 42.44 38.5481 42.3133 39.0414 42.06C39.5347 41.8067 39.9481 41.4267 40.2814 40.92L41.7414 41.84C41.3281 42.5733 40.7414 43.14 39.9814 43.54C39.2347 43.9267 38.3814 44.12 37.4214 44.12ZM52.3952 33.4V44H50.6752V40.64H47.5952H47.3752L45.0552 44H42.9952L45.5752 40.38C44.7752 40.14 44.1618 39.7467 43.7352 39.2C43.3085 38.64 43.0952 37.9467 43.0952 37.12C43.0952 35.9067 43.5085 34.9867 44.3352 34.36C45.1618 33.72 46.3018 33.4 47.7552 33.4H52.3952ZM45.0552 37.18C45.0552 37.8867 45.2752 38.4133 45.7152 38.76C46.1685 39.0933 46.8418 39.26 47.7352 39.26H50.6752V35.08H47.8152C45.9752 35.08 45.0552 35.78 45.0552 37.18ZM61.5123 33.4H63.4323V37.9H69.4723V33.4H71.3923V44H69.4723V39.56H63.4323V44H61.5123V33.4ZM84.5856 33.4L79.4456 45.06C78.9923 46.14 78.459 46.9 77.8456 47.34C77.2456 47.78 76.519 48 75.6656 48C75.1456 48 74.639 47.9133 74.1456 47.74C73.6656 47.58 73.2656 47.34 72.9456 47.02L73.7656 45.58C74.3123 46.1 74.9456 46.36 75.6656 46.36C76.1323 46.36 76.519 46.2333 76.8256 45.98C77.1456 45.74 77.4323 45.32 77.6856 44.72L78.0256 43.98L73.3456 33.4H75.3456L79.0456 41.88L82.7056 33.4H84.5856ZM95.5859 39.52H93.5259V44H91.6059V39.52H89.5459L86.6259 44H84.3459L87.9859 38.52L84.6259 33.4H86.6659L89.5259 37.88H91.6059V33.4H93.5259V37.88H95.6059L98.4659 33.4H100.526L97.1659 38.54L100.806 44H98.5259L95.5859 39.52ZM102.919 33.4H104.839V37.9H110.879V33.4H112.799V44H110.879V39.56H104.839V44H102.919V33.4ZM120.312 33.3C121.779 33.3 122.899 33.66 123.672 34.38C124.459 35.1 124.852 36.1733 124.852 37.6V44H123.032V42.6C122.712 43.0933 122.252 43.4733 121.652 43.74C121.065 43.9933 120.365 44.12 119.552 44.12C118.365 44.12 117.412 43.8333 116.692 43.26C115.985 42.6867 115.632 41.9333 115.632 41C115.632 40.0667 115.972 39.32 116.652 38.76C117.332 38.1867 118.412 37.9 119.892 37.9H122.932V37.52C122.932 36.6933 122.692 36.06 122.212 35.62C121.732 35.18 121.025 34.96 120.092 34.96C119.465 34.96 118.852 35.0667 118.252 35.28C117.652 35.48 117.145 35.7533 116.732 36.1L115.932 34.66C116.479 34.22 117.132 33.8867 117.892 33.66C118.652 33.42 119.459 33.3 120.312 33.3ZM119.872 42.64C120.605 42.64 121.239 42.48 121.772 42.16C122.305 41.8267 122.692 41.36 122.932 40.76V39.28H119.972C118.345 39.28 117.532 39.8267 117.532 40.92C117.532 41.4533 117.739 41.8733 118.152 42.18C118.565 42.4867 119.139 42.64 119.872 42.64ZM136.809 33.4V44H135.089V40.64H132.009H131.789L129.469 44H127.409L129.989 40.38C129.189 40.14 128.576 39.7467 128.149 39.2C127.723 38.64 127.509 37.9467 127.509 37.12C127.509 35.9067 127.923 34.9867 128.749 34.36C129.576 33.72 130.716 33.4 132.169 33.4H136.809ZM129.469 37.18C129.469 37.8867 129.689 38.4133 130.129 38.76C130.583 39.0933 131.256 39.26 132.149 39.26H135.089V35.08H132.229C130.389 35.08 129.469 35.78 129.469 37.18ZM17.86 62.4H19.78V70.12L26.28 62.4H28.02V73H26.1V65.28L19.62 73H17.86V62.4ZM31.7467 62.4H33.6667V66.9H39.7067V62.4H41.6267V73H39.7067V68.56H33.6667V73H31.7467V62.4ZM58.74 67.68C58.74 69.32 58.1933 70.6133 57.1 71.56C56.0067 72.5067 54.4667 73.0333 52.48 73.14V76.88H50.6V73.14C48.6133 73.0333 47.0733 72.5133 45.98 71.58C44.9 70.6333 44.36 69.3333 44.36 67.68C44.36 66.04 44.9 64.76 45.98 63.84C47.06 62.92 48.6 62.4067 50.6 62.3V58.16H52.48V62.3C54.4667 62.4067 56.0067 62.9267 57.1 63.86C58.1933 64.78 58.74 66.0533 58.74 67.68ZM46.26 67.68C46.26 68.8133 46.62 69.7 47.34 70.34C48.0733 70.98 49.16 71.3467 50.6 71.44V64C49.1467 64.0933 48.06 64.4533 47.34 65.08C46.62 65.7067 46.26 66.5733 46.26 67.68ZM52.48 71.46C55.3867 71.2333 56.84 69.9733 56.84 67.68C56.84 66.56 56.4733 65.6933 55.74 65.08C55.0067 64.4533 53.92 64.0933 52.48 64V71.46ZM65.9938 73.12C64.9404 73.12 63.9938 72.8867 63.1538 72.42C62.3138 71.9533 61.6538 71.3133 61.1738 70.5C60.7071 69.6733 60.4738 68.74 60.4738 67.7C60.4738 66.66 60.7071 65.7333 61.1738 64.92C61.6538 64.0933 62.3138 63.4533 63.1538 63C63.9938 62.5333 64.9404 62.3 65.9938 62.3C67.0471 62.3 67.9871 62.5333 68.8138 63C69.6538 63.4533 70.3071 64.0933 70.7738 64.92C71.2538 65.7333 71.4938 66.66 71.4938 67.7C71.4938 68.74 71.2538 69.6733 70.7738 70.5C70.3071 71.3133 69.6538 71.9533 68.8138 72.42C67.9871 72.8867 67.0471 73.12 65.9938 73.12ZM65.9938 71.44C66.6738 71.44 67.2804 71.2867 67.8138 70.98C68.3604 70.66 68.7871 70.22 69.0938 69.66C69.4004 69.0867 69.5538 68.4333 69.5538 67.7C69.5538 66.9667 69.4004 66.32 69.0938 65.76C68.7871 65.1867 68.3604 64.7467 67.8138 64.44C67.2804 64.1333 66.6738 63.98 65.9938 63.98C65.3138 63.98 64.7004 64.1333 64.1538 64.44C63.6204 64.7467 63.1938 65.1867 62.8738 65.76C62.5671 66.32 62.4138 66.9667 62.4138 67.7C62.4138 68.4333 62.5671 69.0867 62.8738 69.66C63.1938 70.22 63.6204 70.66 64.1538 70.98C64.7004 71.2867 65.3138 71.44 65.9938 71.44ZM79.8863 62.3C80.9129 62.3 81.8329 62.5267 82.6463 62.98C83.4596 63.4333 84.0929 64.0667 84.5463 64.88C85.0129 65.6933 85.2463 66.6333 85.2463 67.7C85.2463 68.7667 85.0129 69.7133 84.5463 70.54C84.0929 71.3533 83.4596 71.9867 82.6463 72.44C81.8329 72.8933 80.9129 73.12 79.8863 73.12C79.1263 73.12 78.4263 72.9733 77.7863 72.68C77.1596 72.3867 76.6263 71.96 76.1863 71.4V76.88H74.2663V62.4H76.1063V64.08C76.5329 63.4933 77.0729 63.0533 77.7263 62.76C78.3796 62.4533 79.0996 62.3 79.8863 62.3ZM79.7263 71.44C80.4063 71.44 81.0129 71.2867 81.5463 70.98C82.0929 70.66 82.5196 70.22 82.8263 69.66C83.1463 69.0867 83.3063 68.4333 83.3063 67.7C83.3063 66.9667 83.1463 66.32 82.8263 65.76C82.5196 65.1867 82.0929 64.7467 81.5463 64.44C81.0129 64.1333 80.4063 63.98 79.7263 63.98C79.0596 63.98 78.4529 64.14 77.9063 64.46C77.3729 64.7667 76.9463 65.2 76.6263 65.76C76.3196 66.32 76.1663 66.9667 76.1663 67.7C76.1663 68.4333 76.3196 69.0867 76.6263 69.66C76.9329 70.22 77.3596 70.66 77.9063 70.98C78.4529 71.2867 79.0596 71.44 79.7263 71.44ZM100.256 62.4V73H98.5158V65.26L94.5558 71.8H93.7158L89.7958 65.24V73H88.0358V62.4H90.0158L94.1758 69.56L98.4558 62.4H100.256ZM107.773 62.3C109.239 62.3 110.359 62.66 111.133 63.38C111.919 64.1 112.313 65.1733 112.313 66.6V73H110.493V71.6C110.173 72.0933 109.713 72.4733 109.113 72.74C108.526 72.9933 107.826 73.12 107.013 73.12C105.826 73.12 104.873 72.8333 104.153 72.26C103.446 71.6867 103.093 70.9333 103.093 70C103.093 69.0667 103.433 68.32 104.113 67.76C104.793 67.1867 105.873 66.9 107.353 66.9H110.393V66.52C110.393 65.6933 110.153 65.06 109.673 64.62C109.193 64.18 108.486 63.96 107.553 63.96C106.926 63.96 106.313 64.0667 105.713 64.28C105.113 64.48 104.606 64.7533 104.193 65.1L103.393 63.66C103.939 63.22 104.593 62.8867 105.353 62.66C106.113 62.42 106.919 62.3 107.773 62.3ZM107.333 71.64C108.066 71.64 108.699 71.48 109.233 71.16C109.766 70.8267 110.153 70.36 110.393 69.76V68.28H107.433C105.806 68.28 104.993 68.8267 104.993 69.92C104.993 70.4533 105.199 70.8733 105.613 71.18C106.026 71.4867 106.599 71.64 107.333 71.64ZM127.09 71.32V75.54H125.27V73H115.77V62.4H117.69V71.32H123.49V62.4H125.41V71.32H127.09ZM129.579 62.4H131.499V70.12L137.999 62.4H139.739V73H137.819V65.28L131.339 73H129.579V62.4ZM151.965 62.4V73H150.245V69.64H147.165H146.945L144.625 73H142.565L145.145 69.38C144.345 69.14 143.732 68.7467 143.305 68.2C142.879 67.64 142.665 66.9467 142.665 66.12C142.665 64.9067 143.079 63.9867 143.905 63.36C144.732 62.72 145.872 62.4 147.325 62.4H151.965ZM144.625 66.18C144.625 66.8867 144.845 67.4133 145.285 67.76C145.739 68.0933 146.412 68.26 147.305 68.26H150.245V64.08H147.385C145.545 64.08 144.625 64.78 144.625 66.18Z" fill="black"/>
<path d="M7.99911 10L7.94465e-08 4.4509e-07L16 -9.53674e-07L7.99911 10Z" fill="#181818"/>
<path d="M7.99925 10L16 19L7.86805e-07 19L7.99925 10Z" fill="#F0E819"/>
</svg>
